<svg xmlns="http://www.w3.org/2000/svg" xmlns:xlink="http://www.w3.org/1999/xlink" width="1600" zoomAndPan="magnify" viewBox="0 0 1200 449.999984" height="600" preserveAspectRatio="xMidYMid meet" version="1.0"><defs><g/><clipPath id="1d642c8ed7"><path d="M 20.855469 37.902344 L 184.042969 37.902344 L 184.042969 364.277344 L 20.855469 364.277344 Z M 20.855469 37.902344 " clip-rule="nonzero"/></clipPath><clipPath id="4bc4785c28"><path d="M 184.023438 283.160156 L 184.023438 364.257812 C 93.90625 364.257812 20.855469 291.1875 20.855469 201.074219 C 20.855469 110.957031 93.90625 37.902344 184.023438 37.902344 L 184.023438 119 C 138.699219 119 101.933594 155.75 101.933594 201.089844 C 101.933594 246.429688 138.699219 283.160156 184.023438 283.160156 Z M 184.023438 283.160156 " clip-rule="nonzero"/></clipPath><linearGradient x1="45.495276" gradientTransform="matrix(1.771838, 0, 0, 1.771838, 20.85528, 37.903959)" y1="184.725199" x2="47.674498" gradientUnits="userSpaceOnUse" y2="-0.522489" id="84b9cc2747"><stop stop-opacity="1" stop-color="rgb(25.500488%, 75.570679%, 97.566223%)" offset="0"/><stop stop-opacity="1" stop-color="rgb(25.596619%, 75.686646%, 97.497559%)" offset="0.0058472"/><stop stop-opacity="1" stop-color="rgb(25.694275%, 75.802612%, 97.43042%)" offset="0.015625"/><stop stop-opacity="1" stop-color="rgb(25.791931%, 75.918579%, 97.363281%)" offset="0.03125"/><stop stop-opacity="1" stop-color="rgb(25.985718%, 76.150513%, 97.227478%)" offset="0.046875"/><stop stop-opacity="1" stop-color="rgb(26.18103%, 76.382446%, 97.091675%)" offset="0.0625"/><stop stop-opacity="1" stop-color="rgb(26.374817%, 76.612854%, 96.957397%)" offset="0.078125"/><stop stop-opacity="1" stop-color="rgb(26.570129%, 76.844788%, 96.821594%)" offset="0.09375"/><stop stop-opacity="1" stop-color="rgb(26.763916%, 77.076721%, 96.687317%)" offset="0.109375"/><stop stop-opacity="1" stop-color="rgb(26.957703%, 77.308655%, 96.551514%)" offset="0.125"/><stop stop-opacity="1" stop-color="rgb(27.153015%, 77.540588%, 96.417236%)" offset="0.140625"/><stop stop-opacity="1" stop-color="rgb(27.346802%, 77.770996%, 96.281433%)" offset="0.15625"/><stop stop-opacity="1" stop-color="rgb(27.542114%, 78.00293%, 96.14563%)" offset="0.171875"/><stop stop-opacity="1" stop-color="rgb(27.735901%, 78.234863%, 96.011353%)" offset="0.1875"/><stop stop-opacity="1" stop-color="rgb(27.929688%, 78.466797%, 95.875549%)" offset="0.203125"/><stop stop-opacity="1" stop-color="rgb(28.125%, 78.69873%, 95.741272%)" offset="0.21875"/><stop stop-opacity="1" stop-color="rgb(28.318787%, 78.930664%, 95.605469%)" offset="0.234375"/><stop stop-opacity="1" stop-color="rgb(28.514099%, 79.161072%, 95.471191%)" offset="0.25"/><stop stop-opacity="1" stop-color="rgb(28.707886%, 79.393005%, 95.335388%)" offset="0.265625"/><stop stop-opacity="1" stop-color="rgb(28.903198%, 79.624939%, 95.201111%)" offset="0.28125"/><stop stop-opacity="1" stop-color="rgb(29.096985%, 79.856873%, 95.065308%)" offset="0.296875"/><stop stop-opacity="1" stop-color="rgb(29.290771%, 80.088806%, 94.929504%)" offset="0.3125"/><stop stop-opacity="1" stop-color="rgb(29.486084%, 80.319214%, 94.795227%)" offset="0.328125"/><stop stop-opacity="1" stop-color="rgb(29.679871%, 80.551147%, 94.659424%)" offset="0.34375"/><stop stop-opacity="1" stop-color="rgb(29.875183%, 80.783081%, 94.525146%)" offset="0.359375"/><stop stop-opacity="1" stop-color="rgb(30.06897%, 81.015015%, 94.389343%)" offset="0.375"/><stop stop-opacity="1" stop-color="rgb(30.264282%, 81.246948%, 94.255066%)" offset="0.390625"/><stop stop-opacity="1" stop-color="rgb(30.458069%, 81.477356%, 94.119263%)" offset="0.40625"/><stop stop-opacity="1" stop-color="rgb(30.651855%, 81.70929%, 93.984985%)" offset="0.421875"/><stop stop-opacity="1" stop-color="rgb(30.847168%, 81.941223%, 93.849182%)" offset="0.4375"/><stop stop-opacity="1" stop-color="rgb(31.040955%, 82.173157%, 93.713379%)" offset="0.453125"/><stop stop-opacity="1" stop-color="rgb(31.236267%, 82.40509%, 93.579102%)" offset="0.46875"/><stop stop-opacity="1" stop-color="rgb(31.430054%, 82.637024%, 93.443298%)" offset="0.484375"/><stop stop-opacity="1" stop-color="rgb(31.62384%, 82.867432%, 93.309021%)" offset="0.5"/><stop stop-opacity="1" stop-color="rgb(31.819153%, 83.099365%, 93.173218%)" offset="0.515625"/><stop stop-opacity="1" stop-color="rgb(32.012939%, 83.331299%, 93.03894%)" offset="0.53125"/><stop stop-opacity="1" stop-color="rgb(32.208252%, 83.563232%, 92.903137%)" offset="0.546875"/><stop stop-opacity="1" stop-color="rgb(32.402039%, 83.795166%, 92.767334%)" offset="0.5625"/><stop stop-opacity="1" stop-color="rgb(32.597351%, 84.025574%, 92.633057%)" offset="0.578125"/><stop stop-opacity="1" stop-color="rgb(32.791138%, 84.257507%, 92.497253%)" offset="0.59375"/><stop stop-opacity="1" stop-color="rgb(32.984924%, 84.489441%, 92.362976%)" offset="0.609375"/><stop stop-opacity="1" stop-color="rgb(33.180237%, 84.721375%, 92.227173%)" offset="0.625"/><stop stop-opacity="1" stop-color="rgb(33.374023%, 84.953308%, 92.092896%)" offset="0.640625"/><stop stop-opacity="1" stop-color="rgb(33.569336%, 85.185242%, 91.957092%)" offset="0.65625"/><stop stop-opacity="1" stop-color="rgb(33.763123%, 85.415649%, 91.822815%)" offset="0.671875"/><stop stop-opacity="1" stop-color="rgb(33.956909%, 85.647583%, 91.687012%)" offset="0.6875"/><stop stop-opacity="1" stop-color="rgb(34.152222%, 85.879517%, 91.551208%)" offset="0.703125"/><stop stop-opacity="1" stop-color="rgb(34.346008%, 86.11145%, 91.416931%)" offset="0.71875"/><stop stop-opacity="1" stop-color="rgb(34.541321%, 86.343384%, 91.281128%)" offset="0.734375"/><stop stop-opacity="1" stop-color="rgb(34.735107%, 86.573792%, 91.146851%)" offset="0.75"/><stop stop-opacity="1" stop-color="rgb(34.93042%, 86.805725%, 91.011047%)" offset="0.765625"/><stop stop-opacity="1" stop-color="rgb(35.124207%, 87.037659%, 90.87677%)" offset="0.78125"/><stop stop-opacity="1" stop-color="rgb(35.317993%, 87.269592%, 90.740967%)" offset="0.796875"/><stop stop-opacity="1" stop-color="rgb(35.513306%, 87.501526%, 90.606689%)" offset="0.8125"/><stop stop-opacity="1" stop-color="rgb(35.707092%, 87.733459%, 90.470886%)" offset="0.828125"/><stop stop-opacity="1" stop-color="rgb(35.902405%, 87.963867%, 90.335083%)" offset="0.84375"/><stop stop-opacity="1" stop-color="rgb(36.048889%, 88.139343%, 90.232849%)" offset="0.875"/><stop stop-opacity="1" stop-color="rgb(36.099243%, 88.198853%, 90.19928%)" offset="0.994153"/><stop stop-opacity="1" stop-color="rgb(36.099243%, 88.198853%, 90.19928%)" offset="1"/></linearGradient><clipPath id="31685fe2fa"><path d="M 102.527344 113.6875 L 401.703125 113.6875 L 401.703125 412.859375 L 102.527344 412.859375 Z M 102.527344 113.6875 " clip-rule="nonzero"/></clipPath><clipPath id="dc7bab337f"><path d="M 401.726562 113.6875 L 401.726562 412.882812 L 102.527344 412.882812 C 102.527344 247.652344 236.492188 113.6875 401.726562 113.6875 Z M 401.726562 113.6875 " clip-rule="nonzero"/></clipPath><linearGradient x1="12.287777" gradientTransform="matrix(2.328208, 0, 0, 2.328208, 102.527926, 113.686336)" y1="-8.747163" x2="116.214131" gradientUnits="userSpaceOnUse" y2="137.245801" id="d20cc30bd9"><stop stop-opacity="1" stop-color="rgb(13.299561%, 82.699585%, 93.299866%)" offset="0"/><stop stop-opacity="1" stop-color="rgb(13.299561%, 82.699585%, 93.299866%)" offset="0.125"/><stop stop-opacity="1" stop-color="rgb(13.299561%, 82.699585%, 93.299866%)" offset="0.1875"/><stop stop-opacity="1" stop-color="rgb(13.339233%, 82.568359%, 93.312073%)" offset="0.21875"/><stop stop-opacity="1" stop-color="rgb(13.438416%, 82.246399%, 93.344116%)" offset="0.226562"/><stop stop-opacity="1" stop-color="rgb(13.557434%, 81.864929%, 93.382263%)" offset="0.234375"/><stop stop-opacity="1" stop-color="rgb(13.674927%, 81.483459%, 93.421936%)" offset="0.242188"/><stop stop-opacity="1" stop-color="rgb(13.792419%, 81.10199%, 93.460083%)" offset="0.25"/><stop stop-opacity="1" stop-color="rgb(13.909912%, 80.72052%, 93.49823%)" offset="0.257812"/><stop stop-opacity="1" stop-color="rgb(14.028931%, 80.337524%, 93.536377%)" offset="0.265625"/><stop stop-opacity="1" stop-color="rgb(14.146423%, 79.956055%, 93.57605%)" offset="0.273437"/><stop stop-opacity="1" stop-color="rgb(14.263916%, 79.574585%, 93.614197%)" offset="0.28125"/><stop stop-opacity="1" stop-color="rgb(14.382935%, 79.193115%, 93.652344%)" offset="0.289062"/><stop stop-opacity="1" stop-color="rgb(14.500427%, 78.811646%, 93.690491%)" offset="0.296875"/><stop stop-opacity="1" stop-color="rgb(14.61792%, 78.430176%, 93.730164%)" offset="0.304688"/><stop stop-opacity="1" stop-color="rgb(14.736938%, 78.048706%, 93.768311%)" offset="0.3125"/><stop stop-opacity="1" stop-color="rgb(14.854431%, 77.667236%, 93.806458%)" offset="0.320312"/><stop stop-opacity="1" stop-color="rgb(14.971924%, 77.285767%, 93.844604%)" offset="0.328125"/><stop stop-opacity="1" stop-color="rgb(15.089417%, 76.904297%, 93.884277%)" offset="0.335937"/><stop stop-opacity="1" stop-color="rgb(15.208435%, 76.522827%, 93.922424%)" offset="0.34375"/><stop stop-opacity="1" stop-color="rgb(15.325928%, 76.141357%, 93.960571%)" offset="0.351562"/><stop stop-opacity="1" stop-color="rgb(15.44342%, 75.759888%, 93.998718%)" offset="0.359375"/><stop stop-opacity="1" stop-color="rgb(15.562439%, 75.378418%, 94.038391%)" offset="0.367187"/><stop stop-opacity="1" stop-color="rgb(15.679932%, 74.996948%, 94.076538%)" offset="0.375"/><stop stop-opacity="1" stop-color="rgb(15.797424%, 74.615479%, 94.114685%)" offset="0.382812"/><stop stop-opacity="1" stop-color="rgb(15.916443%, 74.234009%, 94.152832%)" offset="0.390625"/><stop stop-opacity="1" stop-color="rgb(16.033936%, 73.852539%, 94.190979%)" offset="0.398437"/><stop stop-opacity="1" stop-color="rgb(16.151428%, 73.471069%, 94.230652%)" offset="0.40625"/><stop stop-opacity="1" stop-color="rgb(16.268921%, 73.0896%, 94.268799%)" offset="0.414062"/><stop stop-opacity="1" stop-color="rgb(16.387939%, 72.70813%, 94.306946%)" offset="0.41584"/><stop stop-opacity="1" stop-color="rgb(16.447449%, 72.517395%, 94.326782%)" offset="0.421875"/><stop stop-opacity="1" stop-color="rgb(16.505432%, 72.32666%, 94.345093%)" offset="0.429688"/><stop stop-opacity="1" stop-color="rgb(16.622925%, 71.94519%, 94.384766%)" offset="0.4375"/><stop stop-opacity="1" stop-color="rgb(16.741943%, 71.563721%, 94.422913%)" offset="0.445312"/><stop stop-opacity="1" stop-color="rgb(16.859436%, 71.182251%, 94.46106%)" offset="0.453125"/><stop stop-opacity="1" stop-color="rgb(16.976929%, 70.800781%, 94.499207%)" offset="0.460937"/><stop stop-opacity="1" stop-color="rgb(17.095947%, 70.417786%, 94.538879%)" offset="0.46875"/><stop stop-opacity="1" stop-color="rgb(17.21344%, 70.036316%, 94.577026%)" offset="0.476562"/><stop stop-opacity="1" stop-color="rgb(17.330933%, 69.654846%, 94.615173%)" offset="0.484375"/><stop stop-opacity="1" stop-color="rgb(17.448425%, 69.273376%, 94.65332%)" offset="0.492187"/><stop stop-opacity="1" stop-color="rgb(17.567444%, 68.891907%, 94.692993%)" offset="0.5"/><stop stop-opacity="1" stop-color="rgb(17.684937%, 68.510437%, 94.73114%)" offset="0.507812"/><stop stop-opacity="1" stop-color="rgb(17.802429%, 68.128967%, 94.769287%)" offset="0.515625"/><stop stop-opacity="1" stop-color="rgb(17.921448%, 67.747498%, 94.807434%)" offset="0.523438"/><stop stop-opacity="1" stop-color="rgb(18.03894%, 67.366028%, 94.847107%)" offset="0.53125"/><stop stop-opacity="1" stop-color="rgb(18.156433%, 66.984558%, 94.885254%)" offset="0.539062"/><stop stop-opacity="1" stop-color="rgb(18.275452%, 66.603088%, 94.923401%)" offset="0.546875"/><stop stop-opacity="1" stop-color="rgb(18.392944%, 66.221619%, 94.961548%)" offset="0.554688"/><stop stop-opacity="1" stop-color="rgb(18.510437%, 65.840149%, 95.001221%)" offset="0.5625"/><stop stop-opacity="1" stop-color="rgb(18.62793%, 65.458679%, 95.039368%)" offset="0.570312"/><stop stop-opacity="1" stop-color="rgb(18.746948%, 65.077209%, 95.077515%)" offset="0.578125"/><stop stop-opacity="1" stop-color="rgb(18.864441%, 64.69574%, 95.115662%)" offset="0.58416"/><stop stop-opacity="1" stop-color="rgb(18.92395%, 64.505005%, 95.135498%)" offset="0.585938"/><stop stop-opacity="1" stop-color="rgb(18.981934%, 64.31427%, 95.155334%)" offset="0.59375"/><stop stop-opacity="1" stop-color="rgb(19.100952%, 63.9328%, 95.193481%)" offset="0.601562"/><stop stop-opacity="1" stop-color="rgb(19.218445%, 63.551331%, 95.231628%)" offset="0.609375"/><stop stop-opacity="1" stop-color="rgb(19.335938%, 63.169861%, 95.269775%)" offset="0.617188"/><stop stop-opacity="1" stop-color="rgb(19.454956%, 62.788391%, 95.307922%)" offset="0.625"/><stop stop-opacity="1" stop-color="rgb(19.572449%, 62.406921%, 95.347595%)" offset="0.632812"/><stop stop-opacity="1" stop-color="rgb(19.689941%, 62.025452%, 95.385742%)" offset="0.640625"/><stop stop-opacity="1" stop-color="rgb(19.807434%, 61.643982%, 95.423889%)" offset="0.648437"/><stop stop-opacity="1" stop-color="rgb(19.926453%, 61.262512%, 95.462036%)" offset="0.65625"/><stop stop-opacity="1" stop-color="rgb(20.043945%, 60.879517%, 95.501709%)" offset="0.664062"/><stop stop-opacity="1" stop-color="rgb(20.161438%, 60.498047%, 95.539856%)" offset="0.671875"/><stop stop-opacity="1" stop-color="rgb(20.280457%, 60.116577%, 95.578003%)" offset="0.679687"/><stop stop-opacity="1" stop-color="rgb(20.397949%, 59.735107%, 95.61615%)" offset="0.6875"/><stop stop-opacity="1" stop-color="rgb(20.515442%, 59.353638%, 95.655823%)" offset="0.695312"/><stop stop-opacity="1" stop-color="rgb(20.63446%, 58.972168%, 95.69397%)" offset="0.703125"/><stop stop-opacity="1" stop-color="rgb(20.751953%, 58.590698%, 95.732117%)" offset="0.710938"/><stop stop-opacity="1" stop-color="rgb(20.869446%, 58.209229%, 95.770264%)" offset="0.71875"/><stop stop-opacity="1" stop-color="rgb(20.986938%, 57.827759%, 95.809937%)" offset="0.726562"/><stop stop-opacity="1" stop-color="rgb(21.105957%, 57.446289%, 95.848083%)" offset="0.734375"/><stop stop-opacity="1" stop-color="rgb(21.22345%, 57.064819%, 95.88623%)" offset="0.742188"/><stop stop-opacity="1" stop-color="rgb(21.340942%, 56.68335%, 95.924377%)" offset="0.75"/><stop stop-opacity="1" stop-color="rgb(21.459961%, 56.30188%, 95.96405%)" offset="0.757812"/><stop stop-opacity="1" stop-color="rgb(21.577454%, 55.92041%, 96.002197%)" offset="0.765625"/><stop stop-opacity="1" stop-color="rgb(21.694946%, 55.53894%, 96.040344%)" offset="0.773437"/><stop stop-opacity="1" stop-color="rgb(21.813965%, 55.157471%, 96.078491%)" offset="0.78125"/><stop stop-opacity="1" stop-color="rgb(21.931458%, 54.776001%, 96.118164%)" offset="0.789062"/><stop stop-opacity="1" stop-color="rgb(22.04895%, 54.394531%, 96.156311%)" offset="0.796875"/><stop stop-opacity="1" stop-color="rgb(22.166443%, 54.013062%, 96.194458%)" offset="0.804688"/><stop stop-opacity="1" stop-color="rgb(22.285461%, 53.631592%, 96.232605%)" offset="0.8125"/><stop stop-opacity="1" stop-color="rgb(22.402954%, 53.250122%, 96.270752%)" offset="0.820312"/><stop stop-opacity="1" stop-color="rgb(22.520447%, 52.868652%, 96.310425%)" offset="0.828125"/><stop stop-opacity="1" stop-color="rgb(22.639465%, 52.487183%, 96.348572%)" offset="0.835938"/><stop stop-opacity="1" stop-color="rgb(22.756958%, 52.105713%, 96.386719%)" offset="0.84375"/><stop stop-opacity="1" stop-color="rgb(22.874451%, 51.724243%, 96.424866%)" offset="0.851563"/><stop stop-opacity="1" stop-color="rgb(22.993469%, 51.341248%, 96.464539%)" offset="0.859375"/><stop stop-opacity="1" stop-color="rgb(23.075867%, 51.074219%, 96.492004%)" offset="0.875"/><stop stop-opacity="1" stop-color="rgb(23.098755%, 50.999451%, 96.499634%)" offset="1"/></linearGradient><clipPath id="9164141c8e"><path d="M 195.316406 37.902344 L 359.808594 37.902344 L 359.808594 369.4375 L 195.316406 369.4375 Z M 195.316406 37.902344 " clip-rule="nonzero"/></clipPath><clipPath id="a1125c0d9f"><path d="M 195.335938 119.800781 L 195.335938 37.253906 C 286.523438 37.253906 360.445312 111.628906 360.445312 203.355469 C 360.445312 295.078125 286.523438 369.4375 195.335938 369.4375 L 195.335938 286.890625 C 241.195312 286.890625 278.402344 249.488281 278.402344 203.335938 C 278.402344 157.183594 241.195312 119.800781 195.335938 119.800781 Z M 195.335938 119.800781 " clip-rule="nonzero"/></clipPath><linearGradient x1="45.499563" gradientTransform="matrix(-1.792931, 0, 0, -1.803478, 360.445079, 369.436721)" y1="184.360775" x2="47.674498" gradientUnits="userSpaceOnUse" y2="-0.5225" id="25a1d6441f"><stop stop-opacity="1" stop-color="rgb(19.824219%, 74.224854%, 98.324585%)" offset="0"/><stop stop-opacity="1" stop-color="rgb(19.703674%, 74.380493%, 98.231506%)" offset="0.00583611"/><stop stop-opacity="1" stop-color="rgb(19.584656%, 74.536133%, 98.139954%)" offset="0.03125"/><stop stop-opacity="1" stop-color="rgb(19.464111%, 74.691772%, 98.046875%)" offset="0.0625"/><stop stop-opacity="1" stop-color="rgb(19.224548%, 75.003052%, 97.862244%)" offset="0.09375"/><stop stop-opacity="1" stop-color="rgb(18.984985%, 75.312805%, 97.677612%)" offset="0.125"/><stop stop-opacity="1" stop-color="rgb(18.745422%, 75.624084%, 97.492981%)" offset="0.15625"/><stop stop-opacity="1" stop-color="rgb(18.505859%, 75.935364%, 97.30835%)" offset="0.1875"/><stop stop-opacity="1" stop-color="rgb(18.266296%, 76.246643%, 97.125244%)" offset="0.21875"/><stop stop-opacity="1" stop-color="rgb(18.026733%, 76.557922%, 96.940613%)" offset="0.25"/><stop stop-opacity="1" stop-color="rgb(17.78717%, 76.867676%, 96.755981%)" offset="0.28125"/><stop stop-opacity="1" stop-color="rgb(17.547607%, 77.178955%, 96.57135%)" offset="0.3125"/><stop stop-opacity="1" stop-color="rgb(17.308044%, 77.490234%, 96.386719%)" offset="0.34375"/><stop stop-opacity="1" stop-color="rgb(17.070007%, 77.801514%, 96.202087%)" offset="0.375"/><stop stop-opacity="1" stop-color="rgb(16.830444%, 78.112793%, 96.017456%)" offset="0.40625"/><stop stop-opacity="1" stop-color="rgb(16.590881%, 78.424072%, 95.834351%)" offset="0.4375"/><stop stop-opacity="1" stop-color="rgb(16.351318%, 78.733826%, 95.649719%)" offset="0.46875"/><stop stop-opacity="1" stop-color="rgb(16.111755%, 79.045105%, 95.465088%)" offset="0.5"/><stop stop-opacity="1" stop-color="rgb(15.872192%, 79.356384%, 95.280457%)" offset="0.53125"/><stop stop-opacity="1" stop-color="rgb(15.632629%, 79.667664%, 95.095825%)" offset="0.5625"/><stop stop-opacity="1" stop-color="rgb(15.393066%, 79.978943%, 94.911194%)" offset="0.59375"/><stop stop-opacity="1" stop-color="rgb(15.153503%, 80.290222%, 94.726562%)" offset="0.625"/><stop stop-opacity="1" stop-color="rgb(14.91394%, 80.599976%, 94.543457%)" offset="0.65625"/><stop stop-opacity="1" stop-color="rgb(14.674377%, 80.911255%, 94.358826%)" offset="0.6875"/><stop stop-opacity="1" stop-color="rgb(14.434814%, 81.222534%, 94.174194%)" offset="0.71875"/><stop stop-opacity="1" stop-color="rgb(14.195251%, 81.533813%, 93.989563%)" offset="0.75"/><stop stop-opacity="1" stop-color="rgb(13.955688%, 81.845093%, 93.804932%)" offset="0.78125"/><stop stop-opacity="1" stop-color="rgb(13.716125%, 82.156372%, 93.6203%)" offset="0.8125"/><stop stop-opacity="1" stop-color="rgb(13.447571%, 82.505798%, 93.414307%)" offset="0.875"/><stop stop-opacity="1" stop-color="rgb(13.299561%, 82.699585%, 93.299866%)" offset="0.994164"/><stop stop-opacity="1" stop-color="rgb(13.299561%, 82.699585%, 93.299866%)" offset="1"/></linearGradient></defs><g clip-path="url(#1d642c8ed7)"><g clip-path="url(#4bc4785c28)"><path fill="url(#84b9cc2747)" d="M 20.855469 37.902344 L 20.855469 364.257812 L 184.023438 364.257812 L 184.023438 37.902344 Z M 20.855469 37.902344 " fill-rule="nonzero"/></g></g><g clip-path="url(#31685fe2fa)"><g clip-path="url(#dc7bab337f)"><path fill="url(#d20cc30bd9)" d="M 102.527344 113.6875 L 102.527344 412.859375 L 401.703125 412.859375 L 401.703125 113.6875 Z M 102.527344 113.6875 " fill-rule="nonzero"/></g></g><g clip-path="url(#9164141c8e)"><g clip-path="url(#a1125c0d9f)"><path fill="url(#25a1d6441f)" d="M 359.808594 369.4375 L 359.808594 37.902344 L 195.335938 37.902344 L 195.335938 369.4375 Z M 359.808594 369.4375 " fill-rule="nonzero"/></g></g><g fill="#000000" fill-opacity="1"><g transform="translate(430.927716, 299.230601)"><g><path d="M 33.179688 0 C 35.496094 0 36.695312 -1.199219 36.695312 -3.515625 L 36.695312 -79.648438 L 111.371094 0 C 116.171875 4.714844 120.457031 3.171875 120.457031 -3.085938 L 120.457031 -128.175781 C 120.457031 -130.488281 119.257812 -131.6875 116.941406 -131.6875 L 100.394531 -131.6875 C 98.167969 -131.6875 96.878906 -130.488281 96.878906 -128.175781 L 96.878906 -54.097656 L 21.777344 -132.117188 C 17.320312 -136.578125 13.203125 -134.949219 13.203125 -128.6875 L 13.203125 -3.515625 C 13.203125 -1.199219 14.402344 0 16.71875 0 Z M 33.179688 0 "/></g></g></g><g fill="#000000" fill-opacity="1"><g transform="translate(564.658566, 299.230601)"><g><path d="M 53.242188 -92.679688 C 27.347656 -92.679688 7.800781 -74.074219 7.800781 -45.355469 C 7.800781 -16.289062 28.722656 1.972656 54.183594 1.972656 C 67.988281 1.972656 81.449219 -3.859375 91.566406 -14.488281 C 93.367188 -16.289062 93.367188 -18.003906 91.652344 -19.289062 L 83.25 -28.550781 C 81.621094 -29.835938 80.332031 -29.75 78.703125 -28.207031 C 71.933594 -21.261719 63.1875 -17.574219 54.785156 -17.574219 C 41.582031 -17.574219 30.007812 -26.40625 29.40625 -42.265625 L 93.964844 -42.265625 C 96.453125 -42.265625 97.738281 -43.125 97.738281 -46.210938 C 97.738281 -74.074219 79.132812 -92.679688 53.242188 -92.679688 Z M 53.671875 -74.417969 C 63.015625 -74.417969 72.101562 -69.359375 74.761719 -57.785156 L 30.949219 -57.785156 C 34.207031 -69.445312 44.582031 -74.417969 53.671875 -74.417969 Z M 53.671875 -74.417969 "/></g></g></g><g fill="#000000" fill-opacity="1"><g transform="translate(669.843045, 299.230601)"><g><path d="M 26.835938 0 C 28.722656 0 30.09375 -0.855469 31.035156 -2.316406 L 52.128906 -32.066406 L 73.21875 -2.316406 C 74.246094 -0.6875 75.617188 0 77.417969 0 L 96.710938 0 C 99.625 0 100.738281 -1.886719 98.851562 -4.199219 L 66.359375 -46.46875 L 97.308594 -86.59375 C 99.109375 -88.90625 98.082031 -90.792969 95.167969 -90.792969 L 76.90625 -90.792969 C 75.191406 -90.792969 73.730469 -90.109375 72.703125 -88.566406 L 52.128906 -60.527344 L 31.722656 -88.566406 C 30.609375 -90.109375 29.234375 -90.792969 27.519531 -90.792969 L 9.089844 -90.792969 C 6.257812 -90.792969 5.144531 -88.992188 7.03125 -86.59375 L 37.980469 -46.46875 L 5.574219 -4.199219 C 3.6875 -1.886719 4.714844 0 7.628906 0 Z M 26.835938 0 "/></g></g></g><g fill="#000000" fill-opacity="1"><g transform="translate(774.42743, 299.230601)"><g><path d="M 50.242188 1.972656 C 73.476562 1.972656 90.195312 -12.003906 90.195312 -36.78125 L 90.195312 -87.277344 C 90.195312 -89.507812 88.90625 -90.792969 86.679688 -90.792969 L 71.589844 -90.792969 C 69.273438 -90.792969 68.074219 -89.507812 68.074219 -87.277344 L 68.074219 -37.464844 C 68.074219 -25.71875 61.472656 -18.261719 50.242188 -18.261719 C 39.351562 -18.261719 32.492188 -25.207031 32.492188 -37.464844 L 32.492188 -87.277344 C 32.492188 -89.507812 31.292969 -90.792969 28.976562 -90.792969 L 13.890625 -90.792969 C 11.574219 -90.792969 10.375 -89.507812 10.375 -87.277344 L 10.375 -36.78125 C 10.375 -12.003906 26.921875 1.972656 50.242188 1.972656 Z M 50.242188 1.972656 "/></g></g></g><g fill="#000000" fill-opacity="1"><g transform="translate(875.068467, 299.230601)"><g><path d="M 87.449219 0 C 89.765625 0 90.964844 -1.199219 90.964844 -3.515625 L 90.964844 -15.773438 C 90.964844 -18.089844 89.765625 -19.289062 87.449219 -19.289062 L 41.839844 -19.289062 L 87.878906 -86.59375 C 89.421875 -88.992188 88.394531 -90.792969 85.5625 -90.792969 L 12.089844 -90.792969 C 9.859375 -90.792969 8.574219 -89.507812 8.574219 -87.277344 L 8.574219 -75.445312 C 8.574219 -73.132812 9.859375 -71.933594 12.089844 -71.933594 L 54.699219 -71.933594 L 6.429688 -4.199219 C 4.714844 -1.886719 5.914062 0 8.660156 0 Z M 87.449219 0 "/></g></g></g><g fill="#000000" fill-opacity="1"><g transform="translate(971.937609, 299.230601)"><g><path d="M 46.210938 -92.679688 C 36.179688 -92.679688 25.378906 -90.792969 15.175781 -87.449219 C 13.03125 -86.679688 12.175781 -85.222656 12.945312 -82.992188 L 16.546875 -71.675781 C 17.234375 -69.445312 18.777344 -68.84375 21.003906 -69.617188 C 28.894531 -72.53125 37.125 -74.417969 44.238281 -74.417969 C 54.871094 -74.417969 62.929688 -70.21875 62.929688 -58.472656 L 62.929688 -52.726562 C 56.414062 -54.355469 49.984375 -55.214844 43.894531 -55.214844 C 23.492188 -55.214844 7.628906 -45.441406 7.628906 -25.890625 C 7.628906 -7.03125 22.035156 1.972656 38.152344 1.972656 C 47.925781 1.972656 58.8125 -1.285156 66.101562 -11.144531 L 68.246094 -3.085938 C 68.675781 -0.941406 70.046875 0 72.101562 0 L 81.535156 0 C 83.847656 0 85.050781 -1.199219 85.050781 -3.515625 L 85.050781 -59.414062 C 85.050781 -83.675781 67.558594 -92.679688 46.210938 -92.679688 Z M 43.46875 -14.144531 C 36.09375 -14.144531 29.75 -17.917969 29.75 -26.234375 C 29.75 -35.835938 38.066406 -39.609375 49.039062 -39.609375 C 53.5 -39.609375 58.128906 -39.007812 62.929688 -37.894531 L 62.929688 -34.035156 C 62.929688 -19.117188 51.613281 -14.144531 43.46875 -14.144531 Z M 43.46875 -14.144531 "/></g></g></g><g fill="#000000" fill-opacity="1"><g transform="translate(1067.949501, 299.230601)"><g><path d="M 30.351562 1.972656 C 38.582031 1.972656 45.441406 -4.542969 45.441406 -13.117188 C 45.441406 -21.347656 38.753906 -28.207031 30.351562 -28.207031 C 22.035156 -28.207031 15.347656 -21.261719 15.347656 -13.117188 C 15.347656 -4.714844 22.121094 1.972656 30.351562 1.972656 Z M 30.351562 1.972656 "/></g></g></g><g fill="#000000" fill-opacity="1"><g transform="translate(430.927716, 392.450559)"><g/></g></g><g fill="#000000" fill-opacity="1"><g transform="translate(443.853676, 392.450559)"><g><path d="M 46.125 -33.734375 L 36.359375 0 L 31.421875 0 L 23.578125 -27.15625 L 15.4375 0 L 10.546875 0.046875 L 1.109375 -33.734375 L 5.8125 -33.734375 L 13.171875 -5.125 L 21.296875 -33.734375 L 26.234375 -33.734375 L 33.984375 -5.234375 L 41.390625 -33.734375 Z M 46.125 -33.734375 "/></g></g></g><g fill="#000000" fill-opacity="1"><g transform="translate(491.089957, 392.450559)"><g><path d="M 16.890625 -27.015625 C 18.890625 -27.015625 20.695312 -26.582031 22.3125 -25.71875 C 23.925781 -24.863281 25.191406 -23.582031 26.109375 -21.875 C 27.035156 -20.164062 27.5 -18.085938 27.5 -15.640625 L 27.5 0 L 23.140625 0 L 23.140625 -15 C 23.140625 -17.644531 22.476562 -19.671875 21.15625 -21.078125 C 19.832031 -22.484375 18.023438 -23.1875 15.734375 -23.1875 C 13.410156 -23.1875 11.5625 -22.457031 10.1875 -21 C 8.8125 -19.550781 8.125 -17.441406 8.125 -14.671875 L 8.125 0 L 3.734375 0 L 3.734375 -35.828125 L 8.125 -35.828125 L 8.125 -22.75 C 9 -24.101562 10.203125 -25.148438 11.734375 -25.890625 C 13.265625 -26.640625 14.984375 -27.015625 16.890625 -27.015625 Z M 16.890625 -27.015625 "/></g></g></g><g fill="#000000" fill-opacity="1"><g transform="translate(522.064564, 392.450559)"><g><path d="M 27.9375 -14.28125 C 27.9375 -13.4375 27.882812 -12.550781 27.78125 -11.625 L 6.578125 -11.625 C 6.742188 -9.007812 7.640625 -6.96875 9.265625 -5.5 C 10.898438 -4.03125 12.878906 -3.296875 15.203125 -3.296875 C 17.109375 -3.296875 18.695312 -3.738281 19.96875 -4.625 C 21.238281 -5.507812 22.132812 -6.695312 22.65625 -8.1875 L 27.390625 -8.1875 C 26.679688 -5.632812 25.257812 -3.554688 23.125 -1.953125 C 21 -0.359375 18.359375 0.4375 15.203125 0.4375 C 12.679688 0.4375 10.425781 -0.125 8.4375 -1.25 C 6.457031 -2.382812 4.898438 -3.992188 3.765625 -6.078125 C 2.640625 -8.160156 2.078125 -10.570312 2.078125 -13.3125 C 2.078125 -16.050781 2.625 -18.453125 3.71875 -20.515625 C 4.820312 -22.585938 6.363281 -24.179688 8.34375 -25.296875 C 10.332031 -26.410156 12.617188 -26.96875 15.203125 -26.96875 C 17.710938 -26.96875 19.9375 -26.414062 21.875 -25.3125 C 23.8125 -24.21875 25.304688 -22.707031 26.359375 -20.78125 C 27.410156 -18.863281 27.9375 -16.695312 27.9375 -14.28125 Z M 23.375 -15.203125 C 23.375 -16.878906 23.003906 -18.320312 22.265625 -19.53125 C 21.523438 -20.738281 20.515625 -21.65625 19.234375 -22.28125 C 17.960938 -22.914062 16.550781 -23.234375 15 -23.234375 C 12.78125 -23.234375 10.882812 -22.519531 9.3125 -21.09375 C 7.75 -19.675781 6.851562 -17.710938 6.625 -15.203125 Z M 23.375 -15.203125 "/></g></g></g><g fill="#000000" fill-opacity="1"><g transform="translate(552.071212, 392.450559)"><g><path d="M 8.125 -22.21875 C 8.90625 -23.738281 10.015625 -24.914062 11.453125 -25.75 C 12.890625 -26.59375 14.640625 -27.015625 16.703125 -27.015625 L 16.703125 -22.453125 L 15.53125 -22.453125 C 10.59375 -22.453125 8.125 -19.773438 8.125 -14.421875 L 8.125 0 L 3.734375 0 L 3.734375 -26.53125 L 8.125 -26.53125 Z M 8.125 -22.21875 "/></g></g></g><g fill="#000000" fill-opacity="1"><g transform="translate(570.123593, 392.450559)"><g><path d="M 27.9375 -14.28125 C 27.9375 -13.4375 27.882812 -12.550781 27.78125 -11.625 L 6.578125 -11.625 C 6.742188 -9.007812 7.640625 -6.96875 9.265625 -5.5 C 10.898438 -4.03125 12.878906 -3.296875 15.203125 -3.296875 C 17.109375 -3.296875 18.695312 -3.738281 19.96875 -4.625 C 21.238281 -5.507812 22.132812 -6.695312 22.65625 -8.1875 L 27.390625 -8.1875 C 26.679688 -5.632812 25.257812 -3.554688 23.125 -1.953125 C 21 -0.359375 18.359375 0.4375 15.203125 0.4375 C 12.679688 0.4375 10.425781 -0.125 8.4375 -1.25 C 6.457031 -2.382812 4.898438 -3.992188 3.765625 -6.078125 C 2.640625 -8.160156 2.078125 -10.570312 2.078125 -13.3125 C 2.078125 -16.050781 2.625 -18.453125 3.71875 -20.515625 C 4.820312 -22.585938 6.363281 -24.179688 8.34375 -25.296875 C 10.332031 -26.410156 12.617188 -26.96875 15.203125 -26.96875 C 17.710938 -26.96875 19.9375 -26.414062 21.875 -25.3125 C 23.8125 -24.21875 25.304688 -22.707031 26.359375 -20.78125 C 27.410156 -18.863281 27.9375 -16.695312 27.9375 -14.28125 Z M 23.375 -15.203125 C 23.375 -16.878906 23.003906 -18.320312 22.265625 -19.53125 C 21.523438 -20.738281 20.515625 -21.65625 19.234375 -22.28125 C 17.960938 -22.914062 16.550781 -23.234375 15 -23.234375 C 12.78125 -23.234375 10.882812 -22.519531 9.3125 -21.09375 C 7.75 -19.675781 6.851562 -17.710938 6.625 -15.203125 Z M 23.375 -15.203125 "/></g></g></g><g fill="#000000" fill-opacity="1"><g transform="translate(600.130242, 392.450559)"><g/></g></g><g fill="#000000" fill-opacity="1"><g transform="translate(613.052466, 392.450559)"><g><path d="M 8.125 -30.15625 L 8.125 -18.875 L 20.421875 -18.875 L 20.421875 -15.25 L 8.125 -15.25 L 8.125 -3.625 L 21.875 -3.625 L 21.875 0 L 3.734375 0 L 3.734375 -33.78125 L 21.875 -33.78125 L 21.875 -30.15625 Z M 8.125 -30.15625 "/></g></g></g><g fill="#000000" fill-opacity="1"><g transform="translate(637.880554, 392.450559)"><g><path d="M 13.609375 -4.0625 L 21.828125 -26.53125 L 26.53125 -26.53125 L 16.125 0 L 10.984375 0 L 0.578125 -26.53125 L 5.328125 -26.53125 Z M 13.609375 -4.0625 "/></g></g></g><g fill="#000000" fill-opacity="1"><g transform="translate(665.031732, 392.450559)"><g><path d="M 27.9375 -14.28125 C 27.9375 -13.4375 27.882812 -12.550781 27.78125 -11.625 L 6.578125 -11.625 C 6.742188 -9.007812 7.640625 -6.96875 9.265625 -5.5 C 10.898438 -4.03125 12.878906 -3.296875 15.203125 -3.296875 C 17.109375 -3.296875 18.695312 -3.738281 19.96875 -4.625 C 21.238281 -5.507812 22.132812 -6.695312 22.65625 -8.1875 L 27.390625 -8.1875 C 26.679688 -5.632812 25.257812 -3.554688 23.125 -1.953125 C 21 -0.359375 18.359375 0.4375 15.203125 0.4375 C 12.679688 0.4375 10.425781 -0.125 8.4375 -1.25 C 6.457031 -2.382812 4.898438 -3.992188 3.765625 -6.078125 C 2.640625 -8.160156 2.078125 -10.570312 2.078125 -13.3125 C 2.078125 -16.050781 2.625 -18.453125 3.71875 -20.515625 C 4.820312 -22.585938 6.363281 -24.179688 8.34375 -25.296875 C 10.332031 -26.410156 12.617188 -26.96875 15.203125 -26.96875 C 17.710938 -26.96875 19.9375 -26.414062 21.875 -25.3125 C 23.8125 -24.21875 25.304688 -22.707031 26.359375 -20.78125 C 27.410156 -18.863281 27.9375 -16.695312 27.9375 -14.28125 Z M 23.375 -15.203125 C 23.375 -16.878906 23.003906 -18.320312 22.265625 -19.53125 C 21.523438 -20.738281 20.515625 -21.65625 19.234375 -22.28125 C 17.960938 -22.914062 16.550781 -23.234375 15 -23.234375 C 12.78125 -23.234375 10.882812 -22.519531 9.3125 -21.09375 C 7.75 -19.675781 6.851562 -17.710938 6.625 -15.203125 Z M 23.375 -15.203125 "/></g></g></g><g fill="#000000" fill-opacity="1"><g transform="translate(695.03838, 392.450559)"><g><path d="M 8.125 -22.21875 C 8.90625 -23.738281 10.015625 -24.914062 11.453125 -25.75 C 12.890625 -26.59375 14.640625 -27.015625 16.703125 -27.015625 L 16.703125 -22.453125 L 15.53125 -22.453125 C 10.59375 -22.453125 8.125 -19.773438 8.125 -14.421875 L 8.125 0 L 3.734375 0 L 3.734375 -26.53125 L 8.125 -26.53125 Z M 8.125 -22.21875 "/></g></g></g><g fill="#000000" fill-opacity="1"><g transform="translate(713.090749, 392.450559)"><g><path d="M 26.578125 -26.53125 L 10.59375 12.484375 L 6.046875 12.484375 L 11.28125 -0.296875 L 0.578125 -26.53125 L 5.46875 -26.53125 L 13.796875 -5.03125 L 22.03125 -26.53125 Z M 26.578125 -26.53125 "/></g></g></g><g fill="#000000" fill-opacity="1"><g transform="translate(740.33872, 392.450559)"><g/></g></g><g fill="#000000" fill-opacity="1"><g transform="translate(753.260932, 392.450559)"><g><path d="M 8.125 -3.578125 L 19.9375 -3.578125 L 19.9375 0 L 3.734375 0 L 3.734375 -33.734375 L 8.125 -33.734375 Z M 8.125 -3.578125 "/></g></g></g><g fill="#000000" fill-opacity="1"><g transform="translate(774.168785, 392.450559)"><g><path d="M 6 -30.828125 C 5.164062 -30.828125 4.457031 -31.117188 3.875 -31.703125 C 3.289062 -32.285156 3 -33 3 -33.84375 C 3 -34.675781 3.289062 -35.382812 3.875 -35.96875 C 4.457031 -36.550781 5.164062 -36.84375 6 -36.84375 C 6.8125 -36.84375 7.5 -36.550781 8.0625 -35.96875 C 8.625 -35.382812 8.90625 -34.675781 8.90625 -33.84375 C 8.90625 -33 8.625 -32.285156 8.0625 -31.703125 C 7.5 -31.117188 6.8125 -30.828125 6 -30.828125 Z M 8.125 -26.53125 L 8.125 0 L 3.734375 0 L 3.734375 -26.53125 Z M 8.125 -26.53125 "/></g></g></g><g fill="#000000" fill-opacity="1"><g transform="translate(786.074648, 392.450559)"><g><path d="M 16.65625 -27.015625 C 19.882812 -27.015625 22.5 -26.035156 24.5 -24.078125 C 26.5 -22.128906 27.5 -19.316406 27.5 -15.640625 L 27.5 0 L 23.140625 0 L 23.140625 -15 C 23.140625 -17.644531 22.476562 -19.671875 21.15625 -21.078125 C 19.832031 -22.484375 18.023438 -23.1875 15.734375 -23.1875 C 13.410156 -23.1875 11.5625 -22.457031 10.1875 -21 C 8.8125 -19.550781 8.125 -17.441406 8.125 -14.671875 L 8.125 0 L 3.734375 0 L 3.734375 -26.53125 L 8.125 -26.53125 L 8.125 -22.75 C 9 -24.101562 10.1875 -25.148438 11.6875 -25.890625 C 13.1875 -26.640625 14.84375 -27.015625 16.65625 -27.015625 Z M 16.65625 -27.015625 "/></g></g></g><g fill="#000000" fill-opacity="1"><g transform="translate(817.049255, 392.450559)"><g><path d="M 27.9375 -14.28125 C 27.9375 -13.4375 27.882812 -12.550781 27.78125 -11.625 L 6.578125 -11.625 C 6.742188 -9.007812 7.640625 -6.96875 9.265625 -5.5 C 10.898438 -4.03125 12.878906 -3.296875 15.203125 -3.296875 C 17.109375 -3.296875 18.695312 -3.738281 19.96875 -4.625 C 21.238281 -5.507812 22.132812 -6.695312 22.65625 -8.1875 L 27.390625 -8.1875 C 26.679688 -5.632812 25.257812 -3.554688 23.125 -1.953125 C 21 -0.359375 18.359375 0.4375 15.203125 0.4375 C 12.679688 0.4375 10.425781 -0.125 8.4375 -1.25 C 6.457031 -2.382812 4.898438 -3.992188 3.765625 -6.078125 C 2.640625 -8.160156 2.078125 -10.570312 2.078125 -13.3125 C 2.078125 -16.050781 2.625 -18.453125 3.71875 -20.515625 C 4.820312 -22.585938 6.363281 -24.179688 8.34375 -25.296875 C 10.332031 -26.410156 12.617188 -26.96875 15.203125 -26.96875 C 17.710938 -26.96875 19.9375 -26.414062 21.875 -25.3125 C 23.8125 -24.21875 25.304688 -22.707031 26.359375 -20.78125 C 27.410156 -18.863281 27.9375 -16.695312 27.9375 -14.28125 Z M 23.375 -15.203125 C 23.375 -16.878906 23.003906 -18.320312 22.265625 -19.53125 C 21.523438 -20.738281 20.515625 -21.65625 19.234375 -22.28125 C 17.960938 -22.914062 16.550781 -23.234375 15 -23.234375 C 12.78125 -23.234375 10.882812 -22.519531 9.3125 -21.09375 C 7.75 -19.675781 6.851562 -17.710938 6.625 -15.203125 Z M 23.375 -15.203125 "/></g></g></g><g fill="#000000" fill-opacity="1"><g transform="translate(847.055903, 392.450559)"><g/></g></g><g fill="#000000" fill-opacity="1"><g transform="translate(859.97814, 392.450559)"><g><path d="M 2.078125 -16.890625 C 2.078125 -20.179688 2.816406 -23.140625 4.296875 -25.765625 C 5.785156 -28.398438 7.8125 -30.457031 10.375 -31.9375 C 12.945312 -33.425781 15.796875 -34.171875 18.921875 -34.171875 C 22.597656 -34.171875 25.804688 -33.28125 28.546875 -31.5 C 31.296875 -29.726562 33.300781 -27.21875 34.5625 -23.96875 L 29.28125 -23.96875 C 28.34375 -26 26.992188 -27.5625 25.234375 -28.65625 C 23.484375 -29.75 21.378906 -30.296875 18.921875 -30.296875 C 16.566406 -30.296875 14.453125 -29.75 12.578125 -28.65625 C 10.710938 -27.5625 9.242188 -26.003906 8.171875 -23.984375 C 7.109375 -21.960938 6.578125 -19.597656 6.578125 -16.890625 C 6.578125 -14.210938 7.109375 -11.863281 8.171875 -9.84375 C 9.242188 -7.832031 10.710938 -6.273438 12.578125 -5.171875 C 14.453125 -4.078125 16.566406 -3.53125 18.921875 -3.53125 C 21.378906 -3.53125 23.484375 -4.070312 25.234375 -5.15625 C 26.992188 -6.238281 28.34375 -7.796875 29.28125 -9.828125 L 34.5625 -9.828125 C 33.300781 -6.597656 31.296875 -4.101562 28.546875 -2.34375 C 25.804688 -0.582031 22.597656 0.296875 18.921875 0.296875 C 15.796875 0.296875 12.945312 -0.4375 10.375 -1.90625 C 7.8125 -3.375 5.785156 -5.414062 4.296875 -8.03125 C 2.816406 -10.644531 2.078125 -13.597656 2.078125 -16.890625 Z M 2.078125 -16.890625 "/></g></g></g><g fill="#000000" fill-opacity="1"><g transform="translate(897.34128, 392.450559)"><g><path d="M 15.296875 0.4375 C 12.804688 0.4375 10.550781 -0.125 8.53125 -1.25 C 6.519531 -2.382812 4.941406 -3.992188 3.796875 -6.078125 C 2.648438 -8.160156 2.078125 -10.570312 2.078125 -13.3125 C 2.078125 -16.019531 2.664062 -18.414062 3.84375 -20.5 C 5.019531 -22.582031 6.625 -24.179688 8.65625 -25.296875 C 10.695312 -26.410156 12.972656 -26.96875 15.484375 -26.96875 C 18.003906 -26.96875 20.28125 -26.410156 22.3125 -25.296875 C 24.34375 -24.179688 25.945312 -22.585938 27.125 -20.515625 C 28.3125 -18.453125 28.90625 -16.050781 28.90625 -13.3125 C 28.90625 -10.570312 28.296875 -8.160156 27.078125 -6.078125 C 25.867188 -3.992188 24.234375 -2.382812 22.171875 -1.25 C 20.109375 -0.125 17.816406 0.4375 15.296875 0.4375 Z M 15.296875 -3.4375 C 16.878906 -3.4375 18.363281 -3.804688 19.75 -4.546875 C 21.132812 -5.285156 22.253906 -6.394531 23.109375 -7.875 C 23.960938 -9.363281 24.390625 -11.175781 24.390625 -13.3125 C 24.390625 -15.4375 23.96875 -17.238281 23.125 -18.71875 C 22.289062 -20.207031 21.195312 -21.316406 19.84375 -22.046875 C 18.488281 -22.773438 17.019531 -23.140625 15.4375 -23.140625 C 13.820312 -23.140625 12.34375 -22.773438 11 -22.046875 C 9.664062 -21.316406 8.59375 -20.207031 7.78125 -18.71875 C 6.976562 -17.238281 6.578125 -15.4375 6.578125 -13.3125 C 6.578125 -11.144531 6.972656 -9.316406 7.765625 -7.828125 C 8.554688 -6.347656 9.613281 -5.242188 10.9375 -4.515625 C 12.257812 -3.796875 13.710938 -3.4375 15.296875 -3.4375 Z M 15.296875 -3.4375 "/></g></g></g><g fill="#000000" fill-opacity="1"><g transform="translate(928.315886, 392.450559)"><g><path d="M 27.25 -26.53125 L 27.25 0 L 22.84375 0 L 22.84375 -3.921875 C 22.007812 -2.566406 20.84375 -1.507812 19.34375 -0.75 C 17.84375 0.0078125 16.1875 0.390625 14.375 0.390625 C 12.3125 0.390625 10.457031 -0.0351562 8.8125 -0.890625 C 7.164062 -1.742188 5.863281 -3.023438 4.90625 -4.734375 C 3.957031 -6.453125 3.484375 -8.535156 3.484375 -10.984375 L 3.484375 -26.53125 L 7.84375 -26.53125 L 7.84375 -11.5625 C 7.84375 -8.945312 8.503906 -6.9375 9.828125 -5.53125 C 11.148438 -4.132812 12.957031 -3.4375 15.25 -3.4375 C 17.601562 -3.4375 19.457031 -4.160156 20.8125 -5.609375 C 22.164062 -7.066406 22.84375 -9.179688 22.84375 -11.953125 L 22.84375 -26.53125 Z M 27.25 -26.53125 "/></g></g></g><g fill="#000000" fill-opacity="1"><g transform="translate(959.290493, 392.450559)"><g><path d="M 16.65625 -27.015625 C 19.882812 -27.015625 22.5 -26.035156 24.5 -24.078125 C 26.5 -22.128906 27.5 -19.316406 27.5 -15.640625 L 27.5 0 L 23.140625 0 L 23.140625 -15 C 23.140625 -17.644531 22.476562 -19.671875 21.15625 -21.078125 C 19.832031 -22.484375 18.023438 -23.1875 15.734375 -23.1875 C 13.410156 -23.1875 11.5625 -22.457031 10.1875 -21 C 8.8125 -19.550781 8.125 -17.441406 8.125 -14.671875 L 8.125 0 L 3.734375 0 L 3.734375 -26.53125 L 8.125 -26.53125 L 8.125 -22.75 C 9 -24.101562 10.1875 -25.148438 11.6875 -25.890625 C 13.1875 -26.640625 14.84375 -27.015625 16.65625 -27.015625 Z M 16.65625 -27.015625 "/></g></g></g><g fill="#000000" fill-opacity="1"><g transform="translate(990.265099, 392.450559)"><g><path d="M 9.09375 -22.890625 L 9.09375 -7.265625 C 9.09375 -5.972656 9.367188 -5.0625 9.921875 -4.53125 C 10.472656 -4 11.425781 -3.734375 12.78125 -3.734375 L 16.015625 -3.734375 L 16.015625 0 L 12.046875 0 C 9.597656 0 7.757812 -0.5625 6.53125 -1.6875 C 5.3125 -2.820312 4.703125 -4.679688 4.703125 -7.265625 L 4.703125 -22.890625 L 1.265625 -22.890625 L 1.265625 -26.53125 L 4.703125 -26.53125 L 4.703125 -33.203125 L 9.09375 -33.203125 L 9.09375 -26.53125 L 16.015625 -26.53125 L 16.015625 -22.890625 Z M 9.09375 -22.890625 "/></g></g></g><g fill="#000000" fill-opacity="1"><g transform="translate(1007.881904, 392.450559)"><g><path d="M 13.125 0.4375 C 11.082031 0.4375 9.253906 0.09375 7.640625 -0.59375 C 6.035156 -1.289062 4.765625 -2.257812 3.828125 -3.5 C 2.890625 -4.75 2.375 -6.179688 2.28125 -7.796875 L 6.828125 -7.796875 C 6.953125 -6.472656 7.570312 -5.390625 8.6875 -4.546875 C 9.800781 -3.710938 11.257812 -3.296875 13.0625 -3.296875 C 14.75 -3.296875 16.070312 -3.664062 17.03125 -4.40625 C 18 -5.144531 18.484375 -6.082031 18.484375 -7.21875 C 18.484375 -8.375 17.96875 -9.234375 16.9375 -9.796875 C 15.90625 -10.367188 14.3125 -10.925781 12.15625 -11.46875 C 10.1875 -11.988281 8.578125 -12.515625 7.328125 -13.046875 C 6.085938 -13.578125 5.023438 -14.363281 4.140625 -15.40625 C 3.253906 -16.457031 2.8125 -17.84375 2.8125 -19.5625 C 2.8125 -20.914062 3.210938 -22.15625 4.015625 -23.28125 C 4.828125 -24.414062 5.972656 -25.3125 7.453125 -25.96875 C 8.941406 -26.632812 10.632812 -26.96875 12.53125 -26.96875 C 15.46875 -26.96875 17.835938 -26.222656 19.640625 -24.734375 C 21.453125 -23.253906 22.425781 -21.222656 22.5625 -18.640625 L 18.15625 -18.640625 C 18.050781 -20.023438 17.488281 -21.132812 16.46875 -21.96875 C 15.457031 -22.8125 14.097656 -23.234375 12.390625 -23.234375 C 10.804688 -23.234375 9.546875 -22.894531 8.609375 -22.21875 C 7.679688 -21.539062 7.21875 -20.65625 7.21875 -19.5625 C 7.21875 -18.6875 7.5 -17.96875 8.0625 -17.40625 C 8.625 -16.84375 9.332031 -16.390625 10.1875 -16.046875 C 11.039062 -15.703125 12.226562 -15.320312 13.75 -14.90625 C 15.65625 -14.394531 17.203125 -13.890625 18.390625 -13.390625 C 19.585938 -12.890625 20.613281 -12.140625 21.46875 -11.140625 C 22.320312 -10.140625 22.765625 -8.832031 22.796875 -7.21875 C 22.796875 -5.757812 22.390625 -4.445312 21.578125 -3.28125 C 20.773438 -2.125 19.640625 -1.210938 18.171875 -0.546875 C 16.703125 0.109375 15.019531 0.4375 13.125 0.4375 Z M 13.125 0.4375 "/></g></g></g></svg>